<?xml version="1.0" encoding="UTF-8"?>
<svg id="Layer_1" data-name="Layer 1" xmlns="http://www.w3.org/2000/svg" viewBox="0 0 818.98 799.6">
  <defs>
    <style>
      .cls-1 {
        fill: #fff;
      }
    </style>
  </defs>
  <path class="cls-1" d="M434.84,582.35c-8.92-1.13-17.67-3.57-26.6-4.39l-125.57,125.51c-48.78,41.7-119.61,42.86-169.95,3-59.25-46.92-66.39-134.78-16.55-191.5,48.63-55.34,110.18-105.02,159.5-160.5,48.64-46.87,120.31-58.4,179.45-23.39,30.25,17.91,51.38,45.18,72.72,72.35l43.9-42.95c1.16-2.57-2.15-5.94-3.72-8.29-76.16-113.34-226.28-143.03-330.34-47.71-58.14,53.25-111.25,115-168.99,169.01C-43.16,576.54.94,743.71,130.68,788.51c72.23,24.94,145.64,6.76,201.05-43.99,35.76-32.75,70.45-71.05,104.45-105.55,18.28-18.55,37.2-36.48,55.03-55.46-19.11,1.33-37.34,1.26-56.36-1.15ZM420.25,206.94l114.47-113.42c125.02-97.67,290.7,58.41,189.5,185.5-37.45,36.2-73.12,74.25-110.13,110.87-37.04,36.65-67.28,73.11-122.53,80.47-72.37,9.65-127.86-35.49-165.87-91.85l-45.37,45.3c32.64,50.28,84.93,92.06,144.05,106,69.57,16.41,137.15-2.77,189.34-50.29,53.55-48.75,102.28-106.03,155.5-155.5,100.4-112.26,40.53-288.01-105.02-319.04-156.08-33.27-226.1,107.93-326.52,194.5l-1.49,3c27.95-3.92,56.49-1.08,84.05,4.45Z"/>
  <path d="M491.2,583.5c-19.11,1.33-37.34,1.26-56.36-1.15-8.92-1.13-17.67-3.57-26.6-4.39l-125.57,125.51c-48.78,41.7-119.61,42.86-169.95,3-59.25-46.92-66.39-134.78-16.55-191.5,48.63-55.34,110.18-105.02,159.5-160.5,48.64-46.87,120.31-58.4,179.45-23.39,30.25,17.91,51.38,45.18,72.72,72.35l43.9-42.95c1.16-2.57-2.15-5.94-3.72-8.29-76.16-113.34-226.28-143.03-330.34-47.71-58.14,53.25-111.25,115-168.99,169.01C-43.16,576.54.94,743.71,130.68,788.51c72.23,24.94,145.64,6.76,201.05-43.99,35.76-32.75,70.45-71.05,104.45-105.55,18.28-18.55,37.2-36.48,55.03-55.46Z"/>
  <path d="M336.2,202.49c27.95-3.92,56.49-1.08,84.05,4.45l114.47-113.42c125.02-97.67,290.7,58.41,189.5,185.5-37.45,36.2-73.12,74.25-110.13,110.87-37.04,36.65-67.28,73.11-122.53,80.47-72.37,9.65-127.86-35.49-165.87-91.85l-45.37,45.3c32.64,50.28,84.93,92.06,144.05,106,69.57,16.41,137.15-2.77,189.34-50.29,53.55-48.75,102.28-106.03,155.5-155.5,100.4-112.26,40.53-288.01-105.02-319.04-156.08-33.27-226.1,107.93-326.52,194.5l-1.49,3Z"/>
</svg>