<?xml version="1.0" encoding="UTF-8"?>
<svg id="Layer_1" data-name="Layer 1" xmlns="http://www.w3.org/2000/svg" viewBox="0 0 340 138.54">
  <path d="M259,107.28h-20v-7.99c-1.72.86-2.19,2.99-3.97,4.53-10.89,9.42-32.06,5.23-42.56-3.51-32.9-27.42-6.3-75.96,36.92-70.92,15.31,1.79,29.61,20.61,29.61,35.39v42.5ZM214.74,48.53c-19.59,3.35-22.85,39.21,1.02,42.49,31.35,4.32,31.88-48.12-1.02-42.49Z"/>
  <path d="M138,75.28h-58c.66,14.17,12.29,20.82,25.82,17.32,6.38-1.65,7.23-7.61,10.7-8.3,4.77-.94,10.28.63,14.97,1.05,1.17.11,4.85-2.2,4.09.97-7.59,18.58-25.87,25.03-44.82,21.71-50.06-8.77-38.49-88.66,18.29-78.29,20.77,3.79,30.95,26.08,28.95,45.55ZM118,61.28c-2.58-21.72-34.07-21.23-37,0h37Z"/>
  <path d="M277.5,30.28l21.51,51,21.49-51h19.5c-6.57,16.75-13.5,33.4-20.53,49.97-5.79,13.65-14.81,39.4-22.27,50.73-3.93,5.97-7.73,6.92-14.65,7.35-1.64.1-8.14.92-7.56-1.54l14.79-33.84-32.78-72.66h20.5Z"/>
  <path d="M170,107.28h-21V13.78c0-.97,2.39-6.65,3.16-7.84,3.54-5.47,12.46-7.84,17.59-4.21l.25,105.55Z"/>
  <path d="M20,107.28H0v-49.5c0-1.08,2.71-8.01,3.46-9.54,9.64-19.46,34.68-23.73,53.09-14.98l-3.5,18.61c-8.12-.39-13.63-3.17-21.75.21-4.46,1.85-11.3,8.71-11.3,13.7v41.5Z"/>
</svg>