<?xml version="1.0" encoding="UTF-8"?>
<svg id="Layer_1" data-name="Layer 1" xmlns="http://www.w3.org/2000/svg" viewBox="0 0 799.6 818.98">
  <defs>
    <style>
      .cls-1 {
        fill: #fff;
      }
    </style>
  </defs>
  <path class="cls-1" d="M583.5,491.2c18.98-17.82,36.92-36.75,55.46-55.03,34.5-34,72.8-68.69,105.55-104.45,50.75-55.41,68.93-128.82,43.99-201.05C743.71.94,576.54-43.16,473.48,48.68c-54.01,57.74-115.76,110.85-169.01,168.99-95.32,104.07-65.62,254.18,47.71,330.34,2.35,1.58,5.72,4.88,8.29,3.72l42.95-43.9c-27.17-21.33-54.44-42.47-72.35-72.72-35-59.14-23.48-130.8,23.39-179.45,55.48-49.32,105.16-110.88,160.5-159.5,56.72-49.84,144.58-42.7,191.5,16.55,39.86,50.34,38.7,121.16-3,169.95l-125.51,125.57c.82,8.94,3.26,17.68,4.39,26.6,2.41,19.02,2.48,37.25,1.15,56.36ZM202.49,336.2l-3,1.49C112.91,438.11-28.29,508.13,4.98,664.21c31.03,145.54,206.78,205.41,319.04,105.02,49.47-53.22,106.75-101.95,155.5-155.5,47.52-52.2,66.7-119.77,50.29-189.34-13.95-59.12-55.72-111.41-106-144.05l-45.3,45.37c56.36,38.01,101.5,93.5,91.85,165.87-7.37,55.24-43.82,85.48-80.47,122.53-36.62,37.01-74.67,72.68-110.87,110.13-127.09,101.21-283.17-64.48-185.5-189.5l113.42-114.47c-5.53-27.56-8.38-56.1-4.45-84.05Z"/>
  <path d="M583.5,491.2c1.33-19.11,1.26-37.34-1.15-56.36-1.13-8.92-3.57-17.67-4.39-26.6l125.51-125.57c41.7-48.78,42.86-119.61,3-169.95-46.92-59.25-134.78-66.39-191.5-16.55-55.34,48.63-105.02,110.18-160.5,159.5-46.87,48.64-58.4,120.31-23.39,179.45,17.91,30.25,45.18,51.38,72.35,72.72l-42.95,43.9c-2.57,1.16-5.94-2.15-8.29-3.72-113.34-76.16-143.03-226.28-47.71-330.34,53.25-58.14,115-111.25,169.01-168.99C576.54-43.16,743.71.94,788.51,130.68c24.94,72.23,6.76,145.64-43.99,201.05-32.75,35.76-71.05,70.45-105.55,104.45-18.55,18.28-36.48,37.2-55.46,55.03Z"/>
  <path d="M202.49,336.2c-3.92,27.95-1.08,56.49,4.45,84.05l-113.42,114.47c-97.67,125.02,58.41,290.7,185.5,189.5,36.2-37.45,74.25-73.12,110.87-110.13,36.65-37.04,73.11-67.28,80.47-122.53,9.65-72.37-35.49-127.86-91.85-165.87l45.3-45.37c50.28,32.64,92.06,84.93,106,144.05,16.41,69.57-2.77,137.15-50.29,189.34-48.75,53.55-106.03,102.28-155.5,155.5-112.26,100.4-288.01,40.53-319.04-105.02-33.27-156.08,107.93-226.1,194.5-326.52l3-1.49Z"/>
</svg>